<svg xmlns="http://www.w3.org/2000/svg" version="1.1" xmlns:xlink="http://www.w3.org/1999/xlink" xmlns:svgjs="http://svgjs.dev/svgjs" viewBox="0 0 7.688894297050166 5.639871652982525"><g transform="matrix(1,0,0,1,3.844447148525083,4.654926457582443)"><rect width="7.688894297050166" height="7.688894297050166" x="-3.844447148525083" y="-5.679437779616263" fill="#80caff"></rect><g><path d=" M -1.8483570833758662 -0.9216040768302075 L -1.8642134346039994 -0.9194648887295289 L -1.914683952434017 -0.994389696570256 L -2.455781938094056 -0.9213899026346007 L -2.4867089195645127 -0.8364927777296546 L -2.502565270792646 -0.834353589628976 L -2.523556054030554 -0.9899440360550312 L -2.107991529912381 -1.4324777932921897 L -2.520256661843839 -1.3768589026745477 L -2.5451354945642954 -1.2695693706480375 L -2.560991845792428 -1.267430182547359 L -2.5948177576344076 -1.5181587363422122 L -2.5789614064062745 -1.5202979244428907 L -2.5296156097843077 -1.4462304392976297 L -1.9250922192117366 -1.527786985635999 L -1.919343151191163 -1.4851730417103917 L -2.370993800617485 -1.0034628686054616 L -1.9230518784227273 -1.0638949324496303 L -1.8981730457022712 -1.1711844644761404 L -1.882316694474138 -1.1733236525768191 L -1.8483570833758662 -0.9216040768302075 M -1.9240692311164362 -1.7025994559009636 L -1.939525328981638 -1.706735763285733 L -1.9551168205010878 -1.7761252826110527 L -2.483737150943507 -2.1836366888844814 L -2.4695185943083624 -2.236767025296113 L -1.811692965114596 -2.323660302227218 L -1.7595959577441698 -2.3790760204220205 L -1.744139859878968 -2.374939713037251 L -1.8123889317276627 -2.1199140982614177 L -1.8278450295928648 -2.1240504056461873 L -1.8389055530567624 -2.2181071163089814 L -2.0319170756948437 -2.1931561217610778 L -2.0942202056779324 -1.9603486476664724 L -1.938245001020845 -1.8430382238662846 L -1.8836851792872515 -1.9153930844659601 L -1.8682290814220495 -1.9112567770811908 L -1.9240692311164362 -1.7025994559009636 M -2.141404600223958 -1.996785344982845 L -2.0907348347605335 -2.1861225438315697 L -2.348877191586851 -2.1537570743902963 L -2.141404600223958 -1.996785344982845 M -1.5269169444406543 -2.6437786887900945 L -2.1698868005752585 -2.810795945689632 L -2.2402951943152654 -2.777634852659514 L -2.2530350129547725 -2.7873145748162944 L -2.092714614733096 -2.9983178210331314 L -2.079974796093589 -2.9886380988763506 L -2.102351216052253 -2.896375994901677 L -1.6309120641087436 -2.773030439591466 L -1.6278871509347497 -2.7770116329163117 L -1.876661478728021 -3.19837291949946 L -1.9547433906902414 -3.1534595025249743 L -1.9674832093297485 -3.1631392246817547 L -1.8398318733872059 -3.3311455829902545 L -1.8270920547476988 -3.3214658608334746 L -1.8368926663171843 -3.257325795251468 L -1.502717639048703 -2.6756282353888623 L -1.5269169444406543 -2.6437786887900945 M -1.2077047922059445 -3.008703669873229 L -1.2158822889886405 -3.022456071349662 L -1.1667044984709383 -3.098235652503143 L -1.4467837632782747 -3.569255403070974 L -1.5368490377094568 -3.5622378292996584 L -1.5450265344921528 -3.5759902307760916 L -1.1135449381690665 -3.832559192333177 L -1.025636847755085 -3.684720876461522 L -1.039389249231518 -3.6765433796788263 L -1.1550563254529913 -3.7438867347955402 L -1.3570447221381015 -3.6237797507996934 L -1.2359155510444175 -3.4200723039300294 L -1.0932343857264248 -3.5049138330505 L -1.0923304641294485 -3.6031797117966167 L -1.0785780626530155 -3.6113572085793124 L -0.9656263883420275 -3.421402163186081 L -0.9793787898184605 -3.4132246664033854 L -1.0651242405359076 -3.4576399529752613 L -1.2078054058539003 -3.372798423854791 L -1.075943270232928 -3.151040950047308 L -0.8507476960563372 -3.2849474598639543 L -0.8614833884232926 -3.4321369462731477 L -0.8477309869468594 -3.4403144430558434 L -0.7521564932991005 -3.279583250800033 L -1.2077047922059445 -3.008703669873229 M -0.5972117118546788 -3.338844755066033 L -0.5999916460941699 -3.354601403365215 L -0.5271734496782903 -3.4080664412005928 L -0.62238619738086 -3.9477316454475657 L -0.709104064994195 -3.9730498491080963 L -0.7118839992336861 -3.988806497407278 L -0.21751915884686068 -4.076026934171311 L -0.18763486577233152 -3.9066429649551075 L -0.20339151407151318 -3.903863030715616 L -0.2877311669132173 -4.00779003855545 L -0.5191569388074484 -3.9669597544129247 L -0.47797916288498665 -3.733564401481296 L -0.31450393678097666 -3.762406219216016 L -0.2788742750846632 -3.8539896631750974 L -0.26311762678548156 -3.856769597414589 L -0.2247197851025109 -3.6391308927821417 L -0.2404764334016926 -3.636350958542651 L -0.30494791283272604 -3.708242740687579 L -0.46842313893673604 -3.679400922952859 L -0.42359669932494226 -3.425324969128554 L -0.16558158342584217 -3.4708463923002206 L -0.12351986666751924 -3.6123059695063704 L -0.10776321836833758 -3.6150859037458614 L -0.07527273694428549 -3.4309300767491755 L -0.5972117118546788 -3.338844755066033 M 0.0885190769765154 -3.441164164495921 L 0.09196855266452261 -3.4567879002040622 L 0.1796874039070056 -3.478384268803879 L 0.29740076176025204 -4.011544249844198 L 0.2283369569005649 -4.069803934518105 L 0.23178643258857212 -4.085427670226246 L 0.38509433922470787 -4.051579690037675 L 0.6575435721726257 -3.509084145847595 L 0.7472299400608136 -3.9153012742592668 L 0.6550602384291719 -3.9755901297894076 L 0.6585097141171792 -3.991213865497549 L 0.9055600350021624 -3.936669031180935 L 0.9021105593141552 -3.9210452954727937 L 0.8155837837839313 -3.9002098181242353 L 0.684072523178656 -3.304554894251351 L 0.6420837334630265 -3.3138253601628707 L 0.345273343585827 -3.9036868629420782 L 0.247825655399623 -3.4623163291870886 L 0.33999535703126454 -3.402027473656948 L 0.3365458813432573 -3.3864037379488066 L 0.0885190769765154 -3.441164164495921 M 0.9185878261438747 -3.173646619183678 Q 0.8957128463130195 -3.1860052314738163 0.8880278084948036 -3.211752856485312 Q 0.8803427706765877 -3.2375004814968076 0.8927013829667264 -3.260375461327663 Q 0.9050599952568651 -3.283250441158518 0.9308076202683607 -3.290935478976734 Q 0.9565552452798562 -3.2986205167949496 0.9794302251107114 -3.286261904504811 Q 1.0023052049415666 -3.2739032922146722 1.0099902427597824 -3.248155667203177 Q 1.0176752805779985 -3.2224080421916814 1.0053166682878598 -3.199533062360826 Q 0.992958055997721 -3.176658082529971 0.9672104309862254 -3.168973044711755 Q 0.9414628059747299 -3.161288006893539 0.9185878261438747 -3.173646619183678 M 1.3367436826362853 -2.8554079638887906 Q 1.2620691045691754 -2.9263495411936344 1.2366220452659735 -3.0084558574720996 Q 1.2111749859627716 -3.0905621737505644 1.2317291358899765 -3.1717257549971434 Q 1.2522832858171813 -3.252889336243722 1.3163373313448556 -3.32031395527519 Q 1.3659275601404746 -3.3725136603318107 1.4303076488141548 -3.3996283091838437 Q 1.4946877374878353 -3.4267429580358764 1.5642876976965443 -3.429588224094814 Q 1.633887657905253 -3.432433490153752 1.6991918653947284 -3.4097044232091642 Q 1.7644960728842038 -3.3869753562645766 1.81597078203726 -3.3380738806466743 Q 1.8529455731190327 -3.302947468583111 1.8738435340886188 -3.2741286339898514 Q 1.8947414950582049 -3.245309799396592 1.9074469740401918 -3.2187566300219523 Q 1.9201524530221787 -3.192203460647313 1.9308097938339386 -3.1627684290213405 L 1.8125617036217103 -3.029586639120616 L 1.799511777357555 -3.041984196319521 L 1.839024973114828 -3.1837576330453317 Q 1.8309051886588525 -3.224575142773247 1.818544086265724 -3.2514908100996687 Q 1.8061829838725953 -3.27840647742609 1.7815331231514135 -3.301824085468466 Q 1.7315084058054855 -3.349348054730934 1.6668385167116466 -3.3611296269770548 Q 1.6021686276178078 -3.3729111992231755 1.5355954298705112 -3.348569684444934 Q 1.4690222321232147 -3.3242281696666924 1.4118557183727094 -3.264053509670866 Q 1.347801672845035 -3.196628890639398 1.3241119615855665 -3.127409691132014 Q 1.300422250326098 -3.05819049162463 1.3140156760913424 -2.997000469758604 Q 1.327609101856587 -2.9358104478925773 1.3732838437811297 -2.892418997696411 Q 1.4109836307664667 -2.8566038324551304 1.446363529831032 -2.842303037296078 Q 1.481743428895597 -2.8280022421370252 1.5151296245720156 -2.8224920753286704 L 1.6408447060151112 -2.8575451536208236 L 1.6531696363757022 -2.8458363495996357 L 1.5335804239205064 -2.7373770472584074 Q 1.4865280342539104 -2.7517322771995403 1.4406356945876648 -2.7760199934354883 Q 1.3947433549214192 -2.8003077096714364 1.3367436826362853 -2.8554079638887906 M 1.7532730474475433 -2.2364715642570654 Q 1.7254956937601784 -2.302897602992843 1.7252950928711424 -2.369474323843928 Q 1.725094491982106 -2.4360510446950134 1.749518313783534 -2.4955823551846383 Q 1.7739421355849614 -2.555113665674263 1.8214974211326573 -2.602097650354972 Q 1.869052706680353 -2.649081635035681 1.9373239131587914 -2.6776305818810284 Q 2.0055951196372295 -2.7061795287263752 2.072440234134484 -2.7070343198405724 Q 2.1392853486317387 -2.707889110954769 2.1988166591213636 -2.6834652891533413 Q 2.2583479696109885 -2.659041467351914 2.305600347937867 -2.6121403720293785 Q 2.352852726264746 -2.5652392767068437 2.3806300799521107 -2.4988132379710657 Q 2.4084074336394754 -2.432387199235288 2.4086080345285117 -2.365810478384203 Q 2.4088086354175475 -2.2992337575331177 2.38438481361612 -2.239702447043493 Q 2.3599609918146927 -2.1801711365538683 2.3125986045564924 -2.132725859937494 Q 2.265236217298292 -2.0852805833211194 2.196965010819854 -2.0567316364757726 Q 2.1286938043414154 -2.0281826896304254 2.0616557915546654 -2.0277891904518937 Q 1.994617778767915 -2.027395691273362 1.93508646827829 -2.05181951307479 Q 1.8755551577886653 -2.0762433348762173 1.8283027794617865 -2.1231444301987525 Q 1.781050401134908 -2.170045525521288 1.7532730474475433 -2.2364715642570654 M 1.8071181725938792 -2.237309715780019 Q 1.830651763912341 -2.181032099628874 1.8779210904285029 -2.1509387320754008 Q 1.925190416944665 -2.120845364521927 1.9887309925355898 -2.119234385448829 Q 2.052271568126515 -2.117623406375731 2.125155693961604 -2.1481013361160337 Q 2.214646329480638 -2.185523604278178 2.269188169624363 -2.243016540137606 Q 2.3237300097680884 -2.300509475997034 2.3394145527767836 -2.366683452079845 Q 2.3550990957854787 -2.432857428162656 2.3292507249930696 -2.4946705475417823 Q 2.305717133674608 -2.550948163692927 2.25852330251512 -2.5821570134072265 Q 2.211329471355632 -2.613365863121526 2.1475959974752112 -2.6154381341302892 Q 2.083862523594791 -2.6175104051390528 2.0109783977597013 -2.5870324753987495 Q 1.9214877622406674 -2.5496102072366056 1.8666775284507726 -2.4914630811520166 Q 1.811867294660878 -2.4333159550674277 1.7963756499416785 -2.3666806870489516 Q 1.780884005222479 -2.300045419030476 1.8071181725938792 -2.237309715780019 M 1.9387467458451453 -1.772582885055628 L 1.9546912655519435 -1.7712516107339635 L 1.9878961932106165 -1.6882008263958113 L 2.532248695621271 -1.6216774987636295 L 2.579265594367213 -1.7040511063835089 L 2.5952101140740114 -1.7027198320618442 L 2.578652389698309 -1.5044098682085414 L 2.0448072561690886 -1.3242033938321502 L 2.541459913336807 -1.0589598488998662 L 2.525567826121937 -0.8686221448999625 L 2.509623306415139 -0.8699534192216271 L 2.479823999427011 -0.9577372520328417 L 1.9293201230573787 -0.9866419592966896 L 1.883468089342893 -0.9182198064202589 L 1.8675235696360948 -0.9195510807419234 L 1.8880751169767904 -1.1656946037156208 L 1.9040196366835886 -1.1643633293939564 L 1.9366440550861068 -1.0863784121092825 L 2.424780485076168 -1.0556566654701602 L 1.8973204488812052 -1.336517681307547 L 1.9013142718461986 -1.3843512404279417 L 2.4619012963500064 -1.5723597188483769 L 1.9816577680873877 -1.6255024846953972 L 1.9358870157584325 -1.5460352698754387 L 1.9199424960516343 -1.5473665441971032 L 1.9387467458451453 -1.772582885055628" fill="#ffffff" fill-rule="nonzero"></path></g><g><path d=" M -3.165001953125 0.33999999999999997 Q -3.196001953125 0.33999999999999997 -3.217501953125 0.33425 Q -3.2390019531250003 0.32849999999999996 -3.262001953125 0.31699999999999995 L -3.2670019531250003 0.23499999999999996 L -3.2590019531250003 0.23499999999999996 L -3.234501953125 0.288 Q -3.2165019531250003 0.30299999999999994 -3.199501953125 0.30974999999999997 Q -3.182501953125 0.31649999999999995 -3.165001953125 0.31649999999999995 Q -3.135501953125 0.31649999999999995 -3.1187519531250003 0.30099999999999993 Q -3.1020019531250003 0.2855 -3.1020019531250003 0.25899999999999995 Q -3.1020019531250003 0.23699999999999996 -3.111751953125 0.22449999999999998 Q -3.121501953125 0.21199999999999997 -3.139751953125 0.20224999999999996 Q -3.158001953125 0.19249999999999995 -3.1830019531250002 0.17999999999999997 Q -3.206501953125 0.16799999999999995 -3.2230019531250003 0.15649999999999997 Q -3.239501953125 0.14499999999999996 -3.248001953125 0.12974999999999995 Q -3.256501953125 0.11449999999999996 -3.256501953125 0.09149999999999997 Q -3.256501953125 0.07449999999999996 -3.248251953125 0.05824999999999997 Q -3.240001953125 0.04199999999999998 -3.225751953125 0.028749999999999942 Q -3.211501953125 0.015499999999999958 -3.193751953125 0.007749999999999979 Q -3.176001953125 -5.551115123125783e-17 -3.157001953125 -5.551115123125783e-17 Q -3.1340019531250003 -5.551115123125783e-17 -3.114501953125 0.005499999999999949 Q -3.095001953125 0.010999999999999954 -3.074501953125 0.020999999999999963 L -3.069501953125 0.10099999999999995 L -3.077501953125 0.10099999999999995 L -3.100501953125 0.04849999999999993 Q -3.1180019531250003 0.035499999999999976 -3.131001953125 0.029749999999999943 Q -3.144001953125 0.023999999999999966 -3.161001953125 0.023999999999999966 Q -3.1830019531250002 0.023999999999999966 -3.197251953125 0.03899999999999998 Q -3.211501953125 0.05399999999999994 -3.211501953125 0.07599999999999996 Q -3.211501953125 0.10149999999999995 -3.196001953125 0.11574999999999996 Q -3.1805019531250003 0.12999999999999995 -3.147501953125 0.14599999999999996 Q -3.117001953125 0.16099999999999995 -3.097501953125 0.17374999999999996 Q -3.0780019531250002 0.18649999999999997 -3.068501953125 0.20299999999999996 Q -3.059001953125 0.21949999999999997 -3.059001953125 0.24499999999999997 Q -3.059001953125 0.26849999999999996 -3.069001953125 0.28624999999999995 Q -3.079001953125 0.30399999999999994 -3.0947519531250003 0.31599999999999995 Q -3.110501953125 0.32799999999999996 -3.1292519531250003 0.33399999999999996 Q -3.148001953125 0.33999999999999997 -3.165001953125 0.33999999999999997 M -2.9869990234375 0.33499999999999996 L -2.9869990234375 0.32699999999999996 L -2.9469990234375003 0.30699999999999994 L -2.9469990234375003 0.032999999999999974 L -2.9869990234375 0.012999999999999956 L -2.9869990234375 0.004999999999999949 L -2.8619990234375 0.004999999999999949 L -2.8619990234375 0.012999999999999956 L -2.9019990234375 0.032999999999999974 L -2.9019990234375 0.15099999999999997 L -2.7319990234375 0.15099999999999997 L -2.7319990234375 0.032999999999999974 L -2.7719990234375 0.012999999999999956 L -2.7719990234375 0.004999999999999949 L -2.6469990234375 0.004999999999999949 L -2.6469990234375 0.012999999999999956 L -2.6869990234375 0.032999999999999974 L -2.6869990234375 0.30699999999999994 L -2.6469990234375 0.32699999999999996 L -2.6469990234375 0.33499999999999996 L -2.7719990234375 0.33499999999999996 L -2.7719990234375 0.32699999999999996 L -2.7319990234375 0.30699999999999994 L -2.7319990234375 0.17849999999999996 L -2.9019990234375 0.17849999999999996 L -2.9019990234375 0.30699999999999994 L -2.8619990234375 0.32699999999999996 L -2.8619990234375 0.33499999999999996 L -2.9869990234375 0.33499999999999996 M -2.401000244140625 0.33999999999999997 Q -2.437000244140625 0.33999999999999997 -2.467250244140625 0.32725 Q -2.497500244140625 0.31449999999999995 -2.520000244140625 0.29174999999999995 Q -2.542500244140625 0.26899999999999996 -2.555000244140625 0.23799999999999996 Q -2.567500244140625 0.20699999999999996 -2.567500244140625 0.16999999999999996 Q -2.567500244140625 0.13299999999999995 -2.555000244140625 0.10199999999999995 Q -2.542500244140625 0.07099999999999995 -2.520000244140625 0.04824999999999996 Q -2.497500244140625 0.025499999999999967 -2.467250244140625 0.012749999999999984 Q -2.437000244140625 -5.551115123125783e-17 -2.401000244140625 -5.551115123125783e-17 Q -2.3650002441406253 -5.551115123125783e-17 -2.3345002441406253 0.012749999999999984 Q -2.3040002441406253 0.025499999999999967 -2.281500244140625 0.04824999999999996 Q -2.259000244140625 0.07099999999999995 -2.246500244140625 0.10199999999999995 Q -2.234000244140625 0.13299999999999995 -2.234000244140625 0.16999999999999996 Q -2.234000244140625 0.20699999999999996 -2.246500244140625 0.23799999999999996 Q -2.259000244140625 0.26899999999999996 -2.281500244140625 0.29174999999999995 Q -2.3040002441406253 0.31449999999999995 -2.3345002441406253 0.32725 Q -2.3650002441406253 0.33999999999999997 -2.401000244140625 0.33999999999999997 M -2.390500244140625 0.31499999999999995 Q -2.3585002441406253 0.31499999999999995 -2.334250244140625 0.29899999999999993 Q -2.310000244140625 0.283 -2.296250244140625 0.25399999999999995 Q -2.2825002441406252 0.22499999999999998 -2.2825002441406252 0.18549999999999997 Q -2.2825002441406252 0.13699999999999996 -2.299500244140625 0.10074999999999995 Q -2.316500244140625 0.06449999999999995 -2.345250244140625 0.044499999999999984 Q -2.374000244140625 0.024499999999999966 -2.409500244140625 0.024499999999999966 Q -2.441500244140625 0.024499999999999966 -2.466250244140625 0.04024999999999995 Q -2.491000244140625 0.05599999999999994 -2.505000244140625 0.08499999999999996 Q -2.519000244140625 0.11399999999999996 -2.519000244140625 0.15349999999999997 Q -2.519000244140625 0.20199999999999996 -2.501750244140625 0.23849999999999996 Q -2.484500244140625 0.27499999999999997 -2.4555002441406253 0.295 Q -2.426500244140625 0.31499999999999995 -2.390500244140625 0.31499999999999995 M -2.154496826171875 0.33499999999999996 L -2.154496826171875 0.32699999999999996 L -2.1144968261718753 0.30699999999999994 L -2.1144968261718753 0.032999999999999974 L -2.154496826171875 0.012999999999999956 L -2.154496826171875 0.004999999999999949 L -2.024496826171875 0.004999999999999949 Q -1.965496826171875 0.004999999999999949 -1.929746826171875 0.026499999999999968 Q -1.8939968261718751 0.04799999999999993 -1.8939968261718751 0.09449999999999997 Q -1.8939968261718751 0.12199999999999997 -1.9127468261718752 0.14324999999999996 Q -1.931496826171875 0.16449999999999995 -1.9637468261718751 0.17699999999999996 Q -1.995996826171875 0.18949999999999997 -2.036496826171875 0.18949999999999997 L -2.069496826171875 0.18949999999999997 L -2.069496826171875 0.30699999999999994 L -2.024496826171875 0.32699999999999996 L -2.024496826171875 0.33499999999999996 L -2.154496826171875 0.33499999999999996 M -2.069496826171875 0.03249999999999997 L -2.069496826171875 0.16199999999999995 L -2.026996826171875 0.16199999999999995 Q -1.987496826171875 0.16199999999999995 -1.964996826171875 0.14424999999999996 Q -1.9424968261718751 0.12649999999999997 -1.9424968261718751 0.09849999999999995 Q -1.9424968261718751 0.06349999999999995 -1.965246826171875 0.04799999999999993 Q -1.987996826171875 0.03249999999999997 -2.030496826171875 0.03249999999999997 L -2.069496826171875 0.03249999999999997 M -1.58699658203125 0.33999999999999997 Q -1.61799658203125 0.33999999999999997 -1.6394965820312501 0.33425 Q -1.66099658203125 0.32849999999999996 -1.6839965820312501 0.31699999999999995 L -1.68899658203125 0.23499999999999996 L -1.68099658203125 0.23499999999999996 L -1.65649658203125 0.288 Q -1.63849658203125 0.30299999999999994 -1.6214965820312501 0.30974999999999997 Q -1.60449658203125 0.31649999999999995 -1.58699658203125 0.31649999999999995 Q -1.55749658203125 0.31649999999999995 -1.54074658203125 0.30099999999999993 Q -1.52399658203125 0.2855 -1.52399658203125 0.25899999999999995 Q -1.52399658203125 0.23699999999999996 -1.5337465820312501 0.22449999999999998 Q -1.54349658203125 0.21199999999999997 -1.5617465820312502 0.20224999999999996 Q -1.57999658203125 0.19249999999999995 -1.60499658203125 0.17999999999999997 Q -1.62849658203125 0.16799999999999995 -1.64499658203125 0.15649999999999997 Q -1.66149658203125 0.14499999999999996 -1.6699965820312501 0.12974999999999995 Q -1.67849658203125 0.11449999999999996 -1.67849658203125 0.09149999999999997 Q -1.67849658203125 0.07449999999999996 -1.67024658203125 0.05824999999999997 Q -1.6619965820312501 0.04199999999999998 -1.64774658203125 0.028749999999999942 Q -1.6334965820312501 0.015499999999999958 -1.61574658203125 0.007749999999999979 Q -1.59799658203125 -5.551115123125783e-17 -1.57899658203125 -5.551115123125783e-17 Q -1.55599658203125 -5.551115123125783e-17 -1.53649658203125 0.005499999999999949 Q -1.51699658203125 0.010999999999999954 -1.4964965820312501 0.020999999999999963 L -1.49149658203125 0.10099999999999995 L -1.49949658203125 0.10099999999999995 L -1.5224965820312502 0.04849999999999993 Q -1.53999658203125 0.035499999999999976 -1.5529965820312501 0.029749999999999943 Q -1.56599658203125 0.023999999999999966 -1.58299658203125 0.023999999999999966 Q -1.60499658203125 0.023999999999999966 -1.61924658203125 0.03899999999999998 Q -1.6334965820312501 0.05399999999999994 -1.6334965820312501 0.07599999999999996 Q -1.6334965820312501 0.10149999999999995 -1.61799658203125 0.11574999999999996 Q -1.60249658203125 0.12999999999999995 -1.56949658203125 0.14599999999999996 Q -1.5389965820312501 0.16099999999999995 -1.51949658203125 0.17374999999999996 Q -1.49999658203125 0.18649999999999997 -1.4904965820312501 0.20299999999999996 Q -1.48099658203125 0.21949999999999997 -1.48099658203125 0.24499999999999997 Q -1.48099658203125 0.26849999999999996 -1.49099658203125 0.28624999999999995 Q -1.50099658203125 0.30399999999999994 -1.51674658203125 0.31599999999999995 Q -1.53249658203125 0.32799999999999996 -1.55124658203125 0.33399999999999996 Q -1.56999658203125 0.33999999999999997 -1.58699658203125 0.33999999999999997 M -1.41149365234375 0.33499999999999996 L -1.41149365234375 0.32699999999999996 L -1.37199365234375 0.30699999999999994 L -1.36149365234375 0.033499999999999974 L -1.4044936523437501 0.012999999999999956 L -1.4044936523437501 0.004999999999999949 L -1.31199365234375 0.004999999999999949 L -1.19649365234375 0.27099999999999996 L -1.0814936523437502 0.004999999999999949 L -0.9934936523437501 0.004999999999999949 L -0.9934936523437501 0.012999999999999956 L -1.03549365234375 0.032999999999999974 L -1.02699365234375 0.30699999999999994 L -0.99199365234375 0.32699999999999996 L -0.99199365234375 0.33499999999999996 L -1.10699365234375 0.33499999999999996 L -1.10699365234375 0.32699999999999996 L -1.06999365234375 0.30749999999999994 L -1.07499365234375 0.06099999999999994 L -1.1944936523437502 0.33749999999999997 L -1.2169936523437501 0.33749999999999997 L -1.33449365234375 0.06449999999999995 L -1.34099365234375 0.30749999999999994 L -1.30049365234375 0.32699999999999996 L -1.30049365234375 0.33499999999999996 L -1.41149365234375 0.33499999999999996 M -0.9335014648437501 0.33499999999999996 L -0.9335014648437501 0.32699999999999996 L -0.90150146484375 0.31049999999999994 L -0.77350146484375 0.0024999999999999467 L -0.75100146484375 0.0024999999999999467 L -0.6250014648437501 0.30899999999999994 L -0.59150146484375 0.32699999999999996 L -0.59150146484375 0.33499999999999996 L -0.71550146484375 0.33499999999999996 L -0.71550146484375 0.32699999999999996 L -0.6715014648437501 0.30999999999999994 L -0.70900146484375 0.21749999999999997 L -0.83050146484375 0.21749999999999997 L -0.86750146484375 0.30999999999999994 L -0.82550146484375 0.32699999999999996 L -0.82550146484375 0.33499999999999996 L -0.9335014648437501 0.33499999999999996 M -0.81900146484375 0.18999999999999997 L -0.72000146484375 0.18999999999999997 L -0.76950146484375 0.06699999999999995 L -0.81900146484375 0.18999999999999997 M -0.53050146484375 0.33499999999999996 L -0.53050146484375 0.32699999999999996 L -0.49050146484375 0.30699999999999994 L -0.49050146484375 0.032999999999999974 L -0.53050146484375 0.012999999999999956 L -0.53050146484375 0.004999999999999949 L -0.40150146484375004 0.004999999999999949 Q -0.34900146484375005 0.004999999999999949 -0.31875146484375005 0.02674999999999994 Q -0.28850146484375 0.04849999999999993 -0.28850146484375 0.08649999999999997 Q -0.28850146484375 0.11449999999999996 -0.30750146484375 0.13674999999999995 Q -0.32650146484375 0.15899999999999997 -0.35800146484375 0.17049999999999996 L -0.26300146484375003 0.30899999999999994 L -0.23000146484375 0.32699999999999996 L -0.23000146484375 0.33499999999999996 L -0.30200146484375 0.33499999999999996 L -0.39900146484375 0.18349999999999997 L -0.44550146484375003 0.18349999999999997 L -0.44550146484375003 0.30649999999999994 L -0.40800146484375 0.32699999999999996 L -0.40800146484375 0.33499999999999996 L -0.53050146484375 0.33499999999999996 M -0.41300146484375 0.03249999999999997 L -0.44550146484375003 0.03249999999999997 L -0.44550146484375003 0.15599999999999997 L -0.41000146484375 0.15599999999999997 Q -0.37850146484375 0.15599999999999997 -0.35775146484375 0.13824999999999996 Q -0.33700146484375004 0.12049999999999997 -0.33700146484375004 0.09299999999999997 Q -0.33700146484375004 0.06499999999999995 -0.35750146484375 0.04874999999999996 Q -0.37800146484375 0.03249999999999997 -0.41300146484375 0.03249999999999997 M -0.1295009765625 0.33499999999999996 L -0.1295009765625 0.32699999999999996 L -0.07950097656250002 0.30699999999999994 L -0.07950097656250002 0.03249999999999997 L -0.1610009765625 0.03249999999999997 L -0.1950009765625 0.10599999999999996 L -0.20300097656250002 0.10599999999999996 L -0.20300097656250002 0.004999999999999949 L 0.08899902343749999 0.004999999999999949 L 0.08899902343749999 0.10599999999999996 L 0.08099902343749998 0.10599999999999996 L 0.04699902343750001 0.03249999999999997 L -0.03450097656250001 0.03249999999999997 L -0.03450097656250001 0.30699999999999994 L 0.015499023437499981 0.32699999999999996 L 0.015499023437499981 0.33499999999999996 L -0.1295009765625 0.33499999999999996 M 0.1190009765625 0.4375 L 0.1190009765625 0.42699999999999994 Q 0.1400009765625 0.416 0.1495009765625 0.40199999999999997 Q 0.1590009765625 0.38799999999999996 0.1590009765625 0.37249999999999994 Q 0.1590009765625 0.3585 0.1527509765625 0.34924999999999995 Q 0.1465009765625 0.33999999999999997 0.13400097656249998 0.33349999999999996 L 0.1170009765625 0.32449999999999996 L 0.1155009765625 0.31949999999999995 L 0.1300009765625 0.2945 Q 0.13350097656249998 0.289 0.1360009765625 0.28624999999999995 Q 0.1385009765625 0.2835 0.1425009765625 0.2835 Q 0.1465009765625 0.2835 0.1550009765625 0.288 Q 0.17050097656250002 0.297 0.1792509765625 0.31299999999999994 Q 0.1880009765625 0.32899999999999996 0.1880009765625 0.3475 Q 0.1880009765625 0.37399999999999994 0.17200097656250002 0.39699999999999996 Q 0.1560009765625 0.42 0.1190009765625 0.4375 M 0.4945009765625 0.33999999999999997 Q 0.4635009765625 0.33999999999999997 0.44200097656250004 0.33425 Q 0.4205009765625 0.32849999999999996 0.39750097656250005 0.31699999999999995 L 0.39250097656250005 0.23499999999999996 L 0.4005009765625 0.23499999999999996 L 0.4250009765625 0.288 Q 0.44300097656250004 0.30299999999999994 0.46000097656250005 0.30974999999999997 Q 0.4770009765625 0.31649999999999995 0.4945009765625 0.31649999999999995 Q 0.5240009765625 0.31649999999999995 0.5407509765625 0.30099999999999993 Q 0.5575009765625001 0.2855 0.5575009765625001 0.25899999999999995 Q 0.5575009765625001 0.23699999999999996 0.5477509765625 0.22449999999999998 Q 0.5380009765625 0.21199999999999997 0.5197509765625 0.20224999999999996 Q 0.5015009765625 0.19249999999999995 0.4765009765625 0.17999999999999997 Q 0.45300097656250005 0.16799999999999995 0.43650097656250003 0.15649999999999997 Q 0.4200009765625 0.14499999999999996 0.4115009765625 0.12974999999999995 Q 0.4030009765625 0.11449999999999996 0.4030009765625 0.09149999999999997 Q 0.4030009765625 0.07449999999999996 0.41125097656250004 0.05824999999999997 Q 0.4195009765625 0.04199999999999998 0.43375097656250006 0.028749999999999942 Q 0.44800097656250004 0.015499999999999958 0.46575097656250003 0.007749999999999979 Q 0.4835009765625 -5.551115123125783e-17 0.5025009765625 -5.551115123125783e-17 Q 0.5255009765625 -5.551115123125783e-17 0.5450009765625 0.005499999999999949 Q 0.5645009765625 0.010999999999999954 0.5850009765625 0.020999999999999963 L 0.5900009765625001 0.10099999999999995 L 0.5820009765625 0.10099999999999995 L 0.5590009765625 0.04849999999999993 Q 0.5415009765625001 0.035499999999999976 0.5285009765625001 0.029749999999999943 Q 0.5155009765625 0.023999999999999966 0.49850097656250003 0.023999999999999966 Q 0.4765009765625 0.023999999999999966 0.4622509765625 0.03899999999999998 Q 0.44800097656250004 0.05399999999999994 0.44800097656250004 0.07599999999999996 Q 0.44800097656250004 0.10149999999999995 0.4635009765625 0.11574999999999996 Q 0.4790009765625 0.12999999999999995 0.5120009765625 0.14599999999999996 Q 0.5425009765625 0.16099999999999995 0.5620009765625 0.17374999999999996 Q 0.5815009765625 0.18649999999999997 0.5910009765625001 0.20299999999999996 Q 0.6005009765625 0.21949999999999997 0.6005009765625 0.24499999999999997 Q 0.6005009765625 0.26849999999999996 0.5905009765625 0.28624999999999995 Q 0.5805009765625 0.30399999999999994 0.5647509765625001 0.31599999999999995 Q 0.5490009765625 0.32799999999999996 0.5302509765625001 0.33399999999999996 Q 0.5115009765625 0.33999999999999997 0.4945009765625 0.33999999999999997 M 0.67250390625 0.33499999999999996 L 0.67250390625 0.32699999999999996 L 0.71250390625 0.30699999999999994 L 0.71250390625 0.032999999999999974 L 0.67250390625 0.012999999999999956 L 0.67250390625 0.004999999999999949 L 0.79750390625 0.004999999999999949 L 0.79750390625 0.012999999999999956 L 0.7575039062500001 0.032999999999999974 L 0.7575039062500001 0.15099999999999997 L 0.9275039062500001 0.15099999999999997 L 0.9275039062500001 0.032999999999999974 L 0.8875039062500001 0.012999999999999956 L 0.8875039062500001 0.004999999999999949 L 1.01250390625 0.004999999999999949 L 1.01250390625 0.012999999999999956 L 0.97250390625 0.032999999999999974 L 0.97250390625 0.30699999999999994 L 1.01250390625 0.32699999999999996 L 1.01250390625 0.33499999999999996 L 0.8875039062500001 0.33499999999999996 L 0.8875039062500001 0.32699999999999996 L 0.9275039062500001 0.30699999999999994 L 0.9275039062500001 0.17849999999999996 L 0.7575039062500001 0.17849999999999996 L 0.7575039062500001 0.30699999999999994 L 0.79750390625 0.32699999999999996 L 0.79750390625 0.33499999999999996 L 0.67250390625 0.33499999999999996 M 1.258502685546875 0.33999999999999997 Q 1.222502685546875 0.33999999999999997 1.1922526855468751 0.32725 Q 1.162002685546875 0.31449999999999995 1.139502685546875 0.29174999999999995 Q 1.117002685546875 0.26899999999999996 1.1045026855468751 0.23799999999999996 Q 1.092002685546875 0.20699999999999996 1.092002685546875 0.16999999999999996 Q 1.092002685546875 0.13299999999999995 1.1045026855468751 0.10199999999999995 Q 1.117002685546875 0.07099999999999995 1.139502685546875 0.04824999999999996 Q 1.162002685546875 0.025499999999999967 1.1922526855468751 0.012749999999999984 Q 1.222502685546875 -5.551115123125783e-17 1.258502685546875 -5.551115123125783e-17 Q 1.294502685546875 -5.551115123125783e-17 1.325002685546875 0.012749999999999984 Q 1.355502685546875 0.025499999999999967 1.378002685546875 0.04824999999999996 Q 1.4005026855468752 0.07099999999999995 1.413002685546875 0.10199999999999995 Q 1.425502685546875 0.13299999999999995 1.425502685546875 0.16999999999999996 Q 1.425502685546875 0.20699999999999996 1.413002685546875 0.23799999999999996 Q 1.4005026855468752 0.26899999999999996 1.378002685546875 0.29174999999999995 Q 1.355502685546875 0.31449999999999995 1.325002685546875 0.32725 Q 1.294502685546875 0.33999999999999997 1.258502685546875 0.33999999999999997 M 1.269002685546875 0.31499999999999995 Q 1.301002685546875 0.31499999999999995 1.3252526855468751 0.29899999999999993 Q 1.349502685546875 0.283 1.363252685546875 0.25399999999999995 Q 1.377002685546875 0.22499999999999998 1.377002685546875 0.18549999999999997 Q 1.377002685546875 0.13699999999999996 1.360002685546875 0.10074999999999995 Q 1.343002685546875 0.06449999999999995 1.314252685546875 0.044499999999999984 Q 1.285502685546875 0.024499999999999966 1.250002685546875 0.024499999999999966 Q 1.218002685546875 0.024499999999999966 1.193252685546875 0.04024999999999995 Q 1.168502685546875 0.05599999999999994 1.154502685546875 0.08499999999999996 Q 1.140502685546875 0.11399999999999996 1.140502685546875 0.15349999999999997 Q 1.140502685546875 0.20199999999999996 1.1577526855468752 0.23849999999999996 Q 1.1750026855468751 0.27499999999999997 1.204002685546875 0.295 Q 1.233002685546875 0.31499999999999995 1.269002685546875 0.31499999999999995 M 1.505006103515625 0.33499999999999996 L 1.505006103515625 0.32699999999999996 L 1.545006103515625 0.30699999999999994 L 1.545006103515625 0.032999999999999974 L 1.505006103515625 0.012999999999999956 L 1.505006103515625 0.004999999999999949 L 1.6350061035156251 0.004999999999999949 Q 1.694006103515625 0.004999999999999949 1.729756103515625 0.026499999999999968 Q 1.765506103515625 0.04799999999999993 1.765506103515625 0.09449999999999997 Q 1.765506103515625 0.12199999999999997 1.746756103515625 0.14324999999999996 Q 1.7280061035156251 0.16449999999999995 1.695756103515625 0.17699999999999996 Q 1.6635061035156251 0.18949999999999997 1.6230061035156251 0.18949999999999997 L 1.590006103515625 0.18949999999999997 L 1.590006103515625 0.30699999999999994 L 1.6350061035156251 0.32699999999999996 L 1.6350061035156251 0.33499999999999996 L 1.505006103515625 0.33499999999999996 M 1.590006103515625 0.03249999999999997 L 1.590006103515625 0.16199999999999995 L 1.632506103515625 0.16199999999999995 Q 1.672006103515625 0.16199999999999995 1.694506103515625 0.14424999999999996 Q 1.717006103515625 0.12649999999999997 1.717006103515625 0.09849999999999995 Q 1.717006103515625 0.06349999999999995 1.6942561035156252 0.04799999999999993 Q 1.6715061035156251 0.03249999999999997 1.6290061035156251 0.03249999999999997 L 1.590006103515625 0.03249999999999997 M 1.97300634765625 0.33499999999999996 L 1.97300634765625 0.32699999999999996 L 2.01300634765625 0.30699999999999994 L 2.01300634765625 0.032999999999999974 L 1.97300634765625 0.012999999999999956 L 1.97300634765625 0.004999999999999949 L 2.21750634765625 0.004999999999999949 L 2.21750634765625 0.09099999999999997 L 2.20950634765625 0.09099999999999997 L 2.17850634765625 0.03249999999999997 L 2.0580063476562502 0.03249999999999997 L 2.0580063476562502 0.15099999999999997 L 2.14300634765625 0.15099999999999997 L 2.16800634765625 0.10949999999999996 L 2.17600634765625 0.10949999999999996 L 2.17600634765625 0.21899999999999997 L 2.16800634765625 0.21899999999999997 L 2.14300634765625 0.17849999999999996 L 2.0580063476562502 0.17849999999999996 L 2.0580063476562502 0.30749999999999994 L 2.1925063476562503 0.30749999999999994 L 2.22350634765625 0.24399999999999997 L 2.23150634765625 0.24399999999999997 L 2.23150634765625 0.33499999999999996 L 1.97300634765625 0.33499999999999996 M 2.2949951171875003 0.33499999999999996 L 2.2949951171875003 0.32699999999999996 L 2.3269951171875003 0.31049999999999994 L 2.4549951171875 0.0024999999999999467 L 2.4774951171875 0.0024999999999999467 L 2.6034951171875003 0.30899999999999994 L 2.6369951171875 0.32699999999999996 L 2.6369951171875 0.33499999999999996 L 2.5129951171875002 0.33499999999999996 L 2.5129951171875002 0.32699999999999996 L 2.5569951171875003 0.30999999999999994 L 2.5194951171875 0.21749999999999997 L 2.3979951171875 0.21749999999999997 L 2.3609951171875 0.30999999999999994 L 2.4029951171875 0.32699999999999996 L 2.4029951171875 0.33499999999999996 L 2.2949951171875003 0.33499999999999996 M 2.4094951171875003 0.18999999999999997 L 2.5084951171875 0.18999999999999997 L 2.4589951171875 0.06699999999999995 L 2.4094951171875003 0.18999999999999997 M 2.7974951171875 0.33999999999999997 Q 2.7664951171875 0.33999999999999997 2.7449951171875 0.33425 Q 2.7234951171875 0.32849999999999996 2.7004951171875002 0.31699999999999995 L 2.6954951171875 0.23499999999999996 L 2.7034951171875 0.23499999999999996 L 2.7279951171875 0.288 Q 2.7459951171875 0.30299999999999994 2.7629951171875002 0.30974999999999997 Q 2.7799951171875 0.31649999999999995 2.7974951171875 0.31649999999999995 Q 2.8269951171875003 0.31649999999999995 2.8437451171875 0.30099999999999993 Q 2.8604951171875 0.2855 2.8604951171875 0.25899999999999995 Q 2.8604951171875 0.23699999999999996 2.8507451171875 0.22449999999999998 Q 2.8409951171875 0.21199999999999997 2.8227451171875 0.20224999999999996 Q 2.8044951171875 0.19249999999999995 2.7794951171875 0.17999999999999997 Q 2.7559951171875 0.16799999999999995 2.7394951171875 0.15649999999999997 Q 2.7229951171875 0.14499999999999996 2.7144951171875 0.12974999999999995 Q 2.7059951171875003 0.11449999999999996 2.7059951171875003 0.09149999999999997 Q 2.7059951171875003 0.07449999999999996 2.7142451171875 0.05824999999999997 Q 2.7224951171875 0.04199999999999998 2.7367451171875 0.028749999999999942 Q 2.7509951171875002 0.015499999999999958 2.7687451171875 0.007749999999999979 Q 2.7864951171875 -5.551115123125783e-17 2.8054951171875 -5.551115123125783e-17 Q 2.8284951171875 -5.551115123125783e-17 2.8479951171875 0.005499999999999949 Q 2.8674951171875 0.010999999999999954 2.8879951171875002 0.020999999999999963 L 2.8929951171875 0.10099999999999995 L 2.8849951171875 0.10099999999999995 L 2.8619951171875 0.04849999999999993 Q 2.8444951171875 0.035499999999999976 2.8314951171875 0.029749999999999943 Q 2.8184951171875 0.023999999999999966 2.8014951171875 0.023999999999999966 Q 2.7794951171875 0.023999999999999966 2.7652451171875 0.03899999999999998 Q 2.7509951171875002 0.05399999999999994 2.7509951171875002 0.07599999999999996 Q 2.7509951171875002 0.10149999999999995 2.7664951171875 0.11574999999999996 Q 2.7819951171875 0.12999999999999995 2.8149951171875003 0.14599999999999996 Q 2.8454951171875003 0.16099999999999995 2.8649951171875 0.17374999999999996 Q 2.8844951171875 0.18649999999999997 2.8939951171875 0.20299999999999996 Q 2.9034951171875 0.21949999999999997 2.9034951171875 0.24499999999999997 Q 2.9034951171875 0.26849999999999996 2.8934951171875003 0.28624999999999995 Q 2.8834951171875 0.30399999999999994 2.8677451171875 0.31599999999999995 Q 2.8519951171875 0.32799999999999996 2.8332451171875 0.33399999999999996 Q 2.8144951171875 0.33999999999999997 2.7974951171875 0.33999999999999997 M 3.0519931640625 0.33499999999999996 L 3.0519931640625 0.32699999999999996 L 3.0969931640625 0.30699999999999994 L 3.0969931640625 0.18099999999999997 L 2.9859931640625 0.02949999999999997 L 2.9554931640625 0.012999999999999956 L 2.9554931640625 0.004999999999999949 L 3.0764931640625 0.004999999999999949 L 3.0764931640625 0.012999999999999956 L 3.0399931640625 0.03049999999999997 L 3.0399931640625 0.03249999999999997 L 3.1294931640625 0.15399999999999997 L 3.2099931640625003 0.032999999999999974 L 3.2099931640625003 0.030999999999999972 L 3.1734931640625 0.012999999999999956 L 3.1734931640625 0.004999999999999949 L 3.2794931640625 0.004999999999999949 L 3.2794931640625 0.012999999999999956 L 3.2474931640625 0.02949999999999997 L 3.1419931640625003 0.18049999999999997 L 3.1419931640625003 0.30699999999999994 L 3.1869931640625 0.32699999999999996 L 3.1869931640625 0.33499999999999996 L 3.0519931640625 0.33499999999999996" fill="#000000" fill-rule="nonzero"></path></g><g clip-path="url(#SvgjsClipPath1002)"><g clip-path="url(#a1ebb0156-8862-4002-b8df-e3444da587576b8c0948-f526-4740-ac20-086b95b10ed2)"><path d=" M -0.32372072139387087 -2.0627951456504623 C 0.11699658190183815 -2.113036771148815 0.5581698250073976 -2.1632783966471676 0.9987988818882971 -2.2134906066739175 C 1.127188082505023 -1.6531360104525374 1.2551037577313429 -1.0926730247341472 1.3825457705631592 -0.5321022498027839 C 0.8149227688963745 -0.4674396893802397 0.2472409362931327 -0.40274771345678984 -0.3204188347064061 -0.3381145684765463 C -0.32084535904465317 -0.913062022565791 -0.32225730168160927 -1.48786975316492 -0.32372072139387087 -2.0627951456504623" fill="#ffffff" transform="matrix(1,0,0,1,0,0)" fill-rule="nonzero"></path></g><g clip-path="url(#a1ebb0156-8862-4002-b8df-e3444da587576b8c0948-f526-4740-ac20-086b95b10ed2)"><path d=" M 0.46254012682522827 -1.9039074757855015 C 0.41328880601198703 -1.4061684628071462 0.36438802363612766 -0.9083948263374793 0.3158378160775288 -0.4105869366960757 C 0.3487831442675555 -0.4143447631363717 0.4296168602332895 -0.4235370980123876 0.46254012682522827 -0.42730227837760326 Z" fill="#ffffff" transform="matrix(1,0,0,1,0,0)" fill-rule="nonzero"></path></g><g clip-path="url(#a1ebb0156-8862-4002-b8df-e3444da587576b8c0948-f526-4740-ac20-086b95b10ed2)"><path d=" M 0.6835312111125524 -2.0240990927563853 C 0.6848549073346988 -2.012296134775581 0.6951650301316381 -2.0037068170674317 0.7073724508469874 -2.0050819903648835 C 0.7191239317524867 -2.006486579133939 0.7276838339890326 -2.017230580137026 0.7263013068236799 -2.028982061042525 L 0.67373585906867 -2.490525518233336 C 0.6621020400495843 -2.59307520611017 0.6096763157846901 -2.681093651014998 0.5347036325359038 -2.7407849967658953 C 0.4597015338155146 -2.800446927045189 0.36157152054706887 -2.8315905576051312 0.2596174959702007 -2.8200376311329545 C 0.15761199431802675 -2.808352335038563 0.06899788611323321 -2.7558971953020652 0.009416848380847886 -2.6808656811100726 C -0.0502744973700493 -2.605915059464989 -0.08149902047690039 -2.50838806336441 -0.06978430891090559 -2.405808960015973 L -0.01721150728799503 -1.9442434412214595 C -0.01580866919665458 -1.932447640135671 -0.005182764098806469 -1.92397182564368 0.00662973244643994 -1.9252263388299578 C 0.018292966937129007 -1.9266015121274096 0.026941115588484665 -1.937345513130497 0.025558588423131967 -1.9491558249792025 L -0.02700685933187774 -2.4106919283021124 C -0.03731698212881729 -2.5014974891413484 -0.009482592124240963 -2.5878760215042953 0.04339907195050374 -2.6542593870449323 C 0.0962880898931493 -2.7207898299435853 0.17421702803806194 -2.7668985816816813 0.2644489871810347 -2.7771792890070177 C 0.3547618388709164 -2.787408519257048 0.4410521248190533 -2.7600594845339255 0.5075237367745 -2.7072366514023876 C 0.573973287126244 -2.654347633459742 0.620560040277893 -2.5764701723901346 0.630965763357543 -2.4856425499471966 Z" fill="#000000" transform="matrix(1,0,0,1,0,0)" fill-rule="nonzero"></path></g><g clip-path="url(#a1ebb0156-8862-4002-b8df-e3444da587576b8c0948-f526-4740-ac20-086b95b10ed2)"><path d=" M 0.46254012682522827 -1.9039074757855015 C 0.02869133614887831 -1.9961176253937927 -0.40565016367682616 -2.0884748523601004 -0.8394401234099697 -2.1806850019683917 C -1.0209690540374292 -1.6352246822825396 -1.2020090980009461 -1.0896017830113454 -1.3825600371828823 -0.5438169615234432 C -0.823754323177536 -0.42505934866785555 -0.2648603627157655 -0.3062208433907214 0.2939159358595915 -0.1875 C 0.34950382332183527 -0.7597485845696461 0.40603300587538294 -1.3318868611207806 0.46254012682522827 -1.9039074757855015" fill="#3361e1" transform="matrix(1,0,0,1,0,0)" fill-rule="nonzero"></path></g><g clip-path="url(#a1ebb0156-8862-4002-b8df-e3444da587576b8c0948-f526-4740-ac20-086b95b10ed2)"><path d=" M -0.5437558028540898 -1.961936847390815 C -0.5462561179403661 -1.950391274786539 -0.5572869197915853 -1.942780021509198 -0.5693472631489181 -1.9453318136707798 C -0.580900189621095 -1.9477438823422464 -0.5883349500688169 -1.9593482858897289 -0.5859522968689534 -1.970930627833509 L -0.489351888123877 -2.425289356085226 C -0.46783447064609884 -2.526228546891782 -0.4072753684829057 -2.6088492527574134 -0.3269637771381295 -2.6610690687210847 C -0.2465860009822458 -2.713266823081054 -0.14595567262752396 -2.7349239640489476 -0.045501837102421616 -2.7135536239291853 C 0.05489316747947437 -2.6921832838094235 0.1380580595697658 -2.631455042684512 0.190255813929735 -2.551165512943438 C 0.24238738347859656 -2.4707068442406457 0.2641621863329031 -2.3705912866389807 0.24267418432672838 -2.269710926775631 L 0.1461546681285606 -1.8153227830523109 C 0.1436617069101851 -1.8037404411085307 0.1321381959096115 -1.7962174342459993 0.1205632078337322 -1.7987177493322757 C 0.10897013897030594 -1.8012453852230026 0.10156728580994279 -1.8126283374695842 0.10395817411369701 -1.8242503786838977 L 0.20050710578346798 -2.2786973533504242 C 0.21949479270336636 -2.3680689099490015 0.20005116597361772 -2.4566830181537958 0.15385416782071193 -2.5279272903768697 C 0.10757627712089679 -2.599193624203646 0.03444206084731416 -2.6524797510129354 -0.05449561754511545 -2.671386545385925 C -0.14331563405113212 -2.6902271549478076 -0.23187826518062038 -2.671298298971115 -0.3030857680641903 -2.6249909927996975 C -0.37433004028726446 -2.578801348514692 -0.42813093784961065 -2.5057480247880184 -0.4471774557127157 -2.4162955756425317 Z" fill="#000000" transform="matrix(1,0,0,1,0,0)" fill-rule="nonzero"></path></g></g></g><defs><clipPath id="SvgjsClipPath1002"><path d=" M -1.3825600372244964 -2.82241767929214 h 2.7651200744489928 v 2.63491767929214 h -2.7651200744489928 Z"></path></clipPath><clipPath id="a1ebb0156-8862-4002-b8df-e3444da587576b8c0948-f526-4740-ac20-086b95b10ed2"><path d=" M -1.3825600372244964 -0.1875 L 1.3825531244243103 -0.1875 L 1.3825531244243103 -2.822412930464917 L -1.3825600372244964 -2.822412930464917 Z"></path></clipPath></defs></svg>